<svg width="23" height="11" viewBox="0 0 23 11" fill="none" xmlns="http://www.w3.org/2000/svg">
<path d="M1 0C0.723858 0 0.5 0.223858 0.5 0.5C0.5 0.776142 0.723858 1 1 1V0ZM22 1C22.2761 1 22.5 0.776142 22.5 0.5C22.5 0.223858 22.2761 0 22 0V1ZM1 1H22V0H1V1Z" fill="#DA552F"/>
<path d="M1 5C0.723858 5 0.5 5.22386 0.5 5.5C0.5 5.77614 0.723858 6 1 6V5ZM22 6C22.2761 6 22.5 5.77614 22.5 5.5C22.5 5.22386 22.2761 5 22 5V6ZM1 6H22V5H1V6Z" fill="#DA552F"/>
<path d="M1 10C0.723858 10 0.5 10.2239 0.5 10.5C0.5 10.7761 0.723858 11 1 11V10ZM22 11C22.2761 11 22.5 10.7761 22.5 10.5C22.5 10.2239 22.2761 10 22 10V11ZM1 11H22V10H1V11Z" fill="#DA552F"/>
</svg>
