<svg width="18" height="10" viewBox="0 0 18 10" fill="none" xmlns="http://www.w3.org/2000/svg">
<path fill-rule="evenodd" clip-rule="evenodd" d="M9.31189 0.633895C10.954 1.01935 12.6548 1.91881 14.414 3.46059C15.5284 3.71759 16.5253 4.16732 17.4637 4.74551C18.0502 6.3517 18.1675 7.5722 17.757 8.53613H16.8187C16.9359 8.34341 16.9946 8.0864 16.9946 7.8294C16.9946 6.73721 16.1736 5.83775 15.1766 5.83775C14.1796 5.83775 13.3586 6.73721 13.3586 7.8294C13.3586 8.0864 13.3586 8.3434 13.4758 8.53613H4.26843C4.3271 8.34341 4.38568 8.0864 4.38568 7.8294C4.38568 6.73721 3.56463 5.83775 2.56766 5.83775C1.57068 5.83775 0.749638 6.73721 0.749638 7.8294C0.749638 8.0864 0.808311 8.3434 0.866886 8.53613H0.456364C-0.0714188 7.70094 -0.130087 6.80151 0.221766 5.77348C0.339014 3.71756 0.984144 2.23983 2.21569 1.34043V0.890698C4.7375 0.50524 7.08328 0.376697 9.31169 0.633694L9.31189 0.633895ZM2.80231 1.66178C2.91956 2.36851 3.09557 2.88251 3.33009 3.07524C6.73161 3.84625 10.2502 3.9747 13.769 3.65343C10.5434 1.21205 6.90754 0.505239 2.80231 1.66178ZM15.1767 4.2317C16.7601 4.48871 17.5225 5.19543 17.4639 6.22335C16.9361 5.96635 16.2323 5.32389 15.1767 4.2317Z" fill="#B4B4B4"/>
<path fill-rule="evenodd" clip-rule="evenodd" d="M2.56748 6.15908C1.68777 6.15908 1.04265 6.86581 1.04265 7.82954C1.04265 8.729 1.68777 9.5 2.56748 9.5C3.38853 9.5 4.09232 8.729 4.09232 7.82954C4.09232 6.86581 3.38853 6.15908 2.56748 6.15908ZM2.56748 6.73727C2.0397 6.73727 1.57051 7.25127 1.57051 7.82945C1.57051 8.40764 2.0397 8.85734 2.56748 8.85734C3.09527 8.85734 3.50576 8.40761 3.50576 7.82945C3.50576 7.2513 3.09524 6.73727 2.56748 6.73727Z" fill="#B4B4B4"/>
<path fill-rule="evenodd" clip-rule="evenodd" d="M15.1764 6.15908C14.2967 6.15908 13.6516 6.86581 13.6516 7.82954C13.6516 8.729 14.2967 9.5 15.1764 9.5C15.9974 9.5 16.7012 8.729 16.7012 7.82954C16.7012 6.86581 15.9974 6.15908 15.1764 6.15908ZM15.1764 6.73727C14.6486 6.73727 14.1794 7.25127 14.1794 7.82945C14.1794 8.40764 14.6486 8.85734 15.1764 8.85734C15.7042 8.85734 16.1147 8.40761 16.1147 7.82945C16.1147 7.2513 15.7041 6.73727 15.1764 6.73727Z" fill="#B4B4B4"/>
<path fill-rule="evenodd" clip-rule="evenodd" d="M7.20076 0.890867H6.73157V4.1033H7.55262L7.20076 0.890867Z" fill="#B4B4B4"/>
</svg>
