<svg width="7" height="15" viewBox="0 0 7 15" fill="none" xmlns="http://www.w3.org/2000/svg">
<path fill-rule="evenodd" clip-rule="evenodd" d="M5.90344 2.228C5.7987 3.07104 5.03002 3.66961 4.18651 3.56493C3.34292 3.46024 2.74403 2.69197 2.84876 1.84891C2.9535 1.00578 3.72218 0.407204 4.56577 0.511882C5.40926 0.616567 6.00815 1.38484 5.90342 2.22797" fill="#B4B4B4"/>
<path fill-rule="evenodd" clip-rule="evenodd" d="M3.25651 3.81441L5.06442 4.05536C5.42603 4.05536 5.66703 4.41678 5.66703 4.77812C5.48622 6.22365 5.54649 7.12712 6.7518 8.0305C7.35441 8.51231 6.69152 9.41578 6.08891 8.93397C5.7273 8.69302 5.4863 8.39191 5.24523 8.09073C5.18496 8.45215 5.12469 8.81349 4.70288 8.93397C5.90818 10.259 6.75187 11.9455 6.99287 13.6923C7.11341 14.5957 5.66711 14.7764 5.54657 13.873C5.42603 12.6081 4.88369 11.4035 4.10027 10.3795C3.55793 11.7648 2.8347 13.0298 1.87055 14.2343C1.26794 14.957 0.183179 14.0536 0.785791 13.3308C1.81028 12.0659 2.47317 10.6806 3.01551 9.23503C2.6539 8.87361 1.99102 8.45203 2.05128 7.97014L2.35263 5.5609C1.62948 6.16319 1.2076 6.88596 1.14733 7.9099C1.08706 8.6929 -0.0579714 8.63267 0.00229735 7.84966C0.122837 5.92225 1.2076 4.71756 2.83473 3.8744C2.95527 3.81416 3.07581 3.75393 3.25661 3.81416L3.25651 3.81441Z" fill="#B4B4B4"/>
</svg>
