<svg width="18" height="17" viewBox="0 0 18 17" fill="none" xmlns="http://www.w3.org/2000/svg">
<path d="M12.4354 10.6918H11.6676L11.3954 10.4294C12.348 9.32133 12.9214 7.88279 12.9214 6.3179C12.9214 2.82847 10.093 0 6.60354 0C3.11412 0 0.285645 2.82847 0.285645 6.3179C0.285645 9.80732 3.11412 12.6358 6.60354 12.6358C8.16844 12.6358 9.60697 12.0623 10.715 11.1098L10.9775 11.3819V12.1498L15.8374 17L17.2856 15.5517L12.4354 10.6918ZM6.60354 10.6918C4.1833 10.6918 2.22961 8.73814 2.22961 6.3179C2.22961 3.89766 4.1833 1.94397 6.60354 1.94397C9.02378 1.94397 10.9775 3.89766 10.9775 6.3179C10.9775 8.73814 9.02378 10.6918 6.60354 10.6918Z" fill="#5E6076"/>
</svg>
