<svg width="19" height="17" viewBox="0 0 19 17" fill="none" xmlns="http://www.w3.org/2000/svg">
<path d="M13.6214 0C12.0554 0 10.5524 0.750409 9.57141 1.93624C8.59041 0.750409 7.08741 0 5.52141 0C2.74941 0 0.571411 2.24196 0.571411 5.09537C0.571411 8.59727 3.63141 11.4507 8.26641 15.7864L9.57141 17L10.8764 15.7771C15.5114 11.4507 18.5714 8.59727 18.5714 5.09537C18.5714 2.24196 16.3934 0 13.6214 0ZM9.66141 14.406L9.57141 14.4986L9.48141 14.406C5.19741 10.4131 2.37141 7.77275 2.37141 5.09537C2.37141 3.24251 3.72141 1.85286 5.52141 1.85286C6.90741 1.85286 8.25741 2.77003 8.73441 4.03924H10.4174C10.8854 2.77003 12.2354 1.85286 13.6214 1.85286C15.4214 1.85286 16.7714 3.24251 16.7714 5.09537C16.7714 7.77275 13.9454 10.4131 9.66141 14.406Z" fill="#5E6076"/>
</svg>
