<svg width="208" height="50" viewBox="0 0 208 50" fill="none" xmlns="http://www.w3.org/2000/svg">
<path d="M31.2058 41.9118L31.0803 18.55L11.5126 6.64642L21.3349 0.735352L40.881 12.4968L40.881 36.021L31.2058 41.9118Z" fill="url(#paint0_linear_1_275)"/>
<path fill-rule="evenodd" clip-rule="evenodd" d="M0.499962 12.5004L21.792 0L43.0841 12.5004L43.0841 37.5001L21.7926 50L0.499962 37.5001L0.499962 12.5004ZM29.9584 41.2315L39.6983 35.5133L39.6983 14.4878L21.7917 3.9751L11.9065 9.77885L12.0204 30.5844L29.9584 41.2315Z" fill="#006AB5"/>
<ellipse cx="48.2234" cy="9.55885" rx="2.94118" ry="2.93684" transform="rotate(90 48.2234 9.55885)" fill="#006AB5"/>
<path d="M64.9451 39.5547H68.9864V40.9465H66.5607V46.1888H64.9451V39.5547Z" fill="#006AB5"/>
<path fill-rule="evenodd" clip-rule="evenodd" d="M78.001 42.8299C78.001 40.927 76.5433 39.4429 74.5505 39.4429C72.5564 39.4429 71.0988 40.9288 71.1 42.8299C71.1 44.7782 72.557 46.2993 74.5505 46.2993C76.5433 46.2993 78.001 44.7782 78.001 42.8299ZM76.332 42.8299C76.332 43.9622 75.5383 44.8158 74.5509 44.8158C73.563 44.8158 72.7698 43.9622 72.7698 42.8299C72.7698 41.7446 73.5636 40.9287 74.5509 40.9287C75.5389 40.9287 76.332 41.7428 76.332 42.8299Z" fill="#006AB5"/>
<path fill-rule="evenodd" clip-rule="evenodd" d="M83.6126 39.5547H80.8716V46.1888H82.486V44.1388H83.6126C84.8959 44.1388 85.7628 43.1735 85.7628 41.8376C85.7628 40.5006 84.8948 39.5547 83.6126 39.5547ZM84.1202 41.8359C84.1202 42.3659 83.843 42.7459 83.2802 42.7459H82.4865V40.9453H83.3077C83.843 40.9453 84.1202 41.3083 84.1202 41.8359Z" fill="#006AB5"/>
<path fill-rule="evenodd" clip-rule="evenodd" d="M95.0294 42.8299C95.0294 40.927 93.5712 39.4429 91.5783 39.4429C89.586 39.4429 88.1272 40.9288 88.1284 42.8299C88.1284 44.7782 89.586 46.2993 91.5783 46.2993C93.5712 46.2993 95.0294 44.7782 95.0294 42.8299ZM93.3604 42.8299C93.3604 43.9622 92.5667 44.8158 91.5793 44.8158C90.592 44.8158 89.7982 43.9622 89.7982 42.8299C89.7982 41.7446 90.592 40.9287 91.5793 40.9287C92.5679 40.9287 93.3604 41.7428 93.3604 42.8299Z" fill="#006AB5"/>
<path fill-rule="evenodd" clip-rule="evenodd" d="M98.602 41.121C98.602 42.3181 98.4347 43.6269 97.7621 44.8057H97.0795V47.4881H98.5652V46.1887H102.377V47.4881H103.807V44.8057H103.069V39.554H98.602V41.121ZM101.454 40.9458V44.8058V44.8064H99.4151C99.9585 43.7858 100.134 42.3099 100.134 41.2517V40.9458H101.454Z" fill="#006AB5"/>
<path d="M109.647 39.4429C110.534 39.4429 111.474 39.7399 112.121 40.3799L111.373 41.6046C110.949 41.2335 110.312 40.9288 109.721 40.9288C108.402 40.9288 107.858 41.8664 107.858 42.8211C107.858 43.8046 108.448 44.817 109.721 44.817C110.377 44.817 111.023 44.4552 111.475 43.9999L112.305 45.1882C111.723 45.7911 110.856 46.3017 109.648 46.3017C107.525 46.3017 106.188 44.8264 106.188 42.8593C106.187 40.9288 107.608 39.4429 109.647 39.4429Z" fill="#006AB5"/>
<path d="M114.974 39.5547H116.589V42.1159H117.253L118.619 39.5547H120.354L118.573 42.7288V42.7476L120.455 46.19H118.647L117.253 43.4994H116.589V46.19H114.974V39.5547Z" fill="#006AB5"/>
<path d="M123.047 39.5547H124.664V42.6547C124.664 43.0729 124.589 43.7865 124.589 43.7865H124.607C124.607 43.7865 124.902 43.09 125.161 42.6547L126.988 39.5547H128.621V46.1888H127.006V43.0994C127.006 42.6812 127.08 41.9659 127.08 41.9659H127.062C127.062 41.9659 126.766 42.6629 126.508 43.0994L124.672 46.1888H123.047V39.5547Z" fill="#006AB5"/>
<path d="M131.851 39.5547H135.985V40.9465H133.466V42.1535H135.477V43.5441H133.466V44.7982H136.113V46.1888H131.85L131.851 39.5547Z" fill="#006AB5"/>
<path d="M143.168 39.5547H144.783V42.1159H145.447L146.812 39.5547H148.547L146.767 42.7288V42.7476L148.649 46.19H146.84L145.447 43.4994H144.783V46.19H143.168V39.5547Z" fill="#006AB5"/>
<path fill-rule="evenodd" clip-rule="evenodd" d="M151.242 39.5547H153.669C154.988 39.5547 155.911 40.1488 155.911 41.2894C155.911 41.8459 155.644 42.4123 155.145 42.7V42.7182C155.902 42.9506 156.179 43.627 156.179 44.2117C156.179 45.6594 154.979 46.1876 153.669 46.1876H151.242V39.5547ZM153.688 42.1248C154.095 42.1248 154.27 41.8277 154.27 41.5124C154.27 41.2059 154.095 40.9465 153.661 40.9465H152.858V42.1248H153.688ZM154.527 44.1012C154.527 44.4724 154.296 44.7983 153.826 44.7983H152.857V43.4236H153.835C154.306 43.4236 154.527 43.7295 154.527 44.1012Z" fill="#006AB5"/>
<path fill-rule="evenodd" clip-rule="evenodd" d="M162.214 39.5547H160.517L158.273 46.1888H159.935L160.332 44.7982H162.39L162.796 46.1888H164.456L162.214 39.5547ZM161.643 42.2089L162.012 43.4984H160.712L161.089 42.2089C161.209 41.7913 161.358 41.0684 161.358 41.0684H161.375C161.375 41.0684 161.523 41.7907 161.643 42.2089Z" fill="#006AB5"/>
<path fill-rule="evenodd" clip-rule="evenodd" d="M169.709 39.5547H166.969V46.1888H168.584V44.1388H169.709C170.993 44.1388 171.859 43.1735 171.859 41.8376C171.859 40.5006 170.993 39.5547 169.709 39.5547ZM170.217 41.8359C170.217 42.3659 169.941 42.7459 169.378 42.7459H168.584V40.9453H169.406C169.941 40.9453 170.217 41.3083 170.217 41.8359Z" fill="#006AB5"/>
<path d="M176.013 40.9465H174.01V39.5547H179.63V40.9465H177.627V46.1888H176.012L176.013 40.9465Z" fill="#006AB5"/>
<path fill-rule="evenodd" clip-rule="evenodd" d="M184.983 39.5547H183.284L181.041 46.1888H182.703L183.1 44.7982H185.159L185.564 46.1888H187.225L184.983 39.5547ZM184.41 42.2089L184.779 43.4984H183.479L183.857 42.2089C183.976 41.7913 184.124 41.0684 184.124 41.0684H184.143C184.143 41.0684 184.29 41.7907 184.41 42.2089Z" fill="#006AB5"/>
<path d="M190.511 41.7353V39.5547H194.94V46.1888H193.325V40.9465H192.042V41.7535C192.042 45.02 191.046 46.2635 189.191 46.2635V44.7882C189.976 44.6853 190.511 44.1106 190.511 41.7353Z" fill="#006AB5"/>
<path fill-rule="evenodd" clip-rule="evenodd" d="M205.322 39.5547H203.707V46.1888H205.322V39.5547ZM198.172 39.5547H199.786V41.6047H200.82C202.102 41.6047 202.97 42.5706 202.97 43.9065C202.97 45.2423 202.103 46.1888 200.82 46.1888H198.172L198.172 39.5547ZM200.515 44.7982C201.051 44.7982 201.327 44.4365 201.327 43.9065C201.327 43.3765 201.051 42.9971 200.487 42.9971H199.786V44.7982H200.515Z" fill="#006AB5"/>
<path d="M65.8445 16.5288H67.9054V22.9858H75.5503V16.5288H77.5919V31.2347H75.5503V24.7776H67.907V31.2347H65.8457L65.8445 16.5288Z" fill="#006AB5"/>
<path fill-rule="evenodd" clip-rule="evenodd" d="M100.352 16.5288L105.631 16.5288C108.195 16.5288 110.011 17.9034 110.011 20.2782C110.011 21.716 109.284 22.8614 108.131 23.4445V23.4863C109.734 23.9441 110.631 25.4028 110.631 27.0483C110.631 29.8189 108.408 31.2347 105.758 31.2347H100.352V16.5288ZM105.631 22.7152C106.999 22.7152 107.854 21.7781 107.854 20.4866C107.854 19.195 107.042 18.3206 105.61 18.3206H102.468V22.7158L105.631 22.7152ZM108.451 26.923C108.451 28.4443 107.49 29.444 105.865 29.444H102.467V24.4233H105.865C107.448 24.4233 108.451 25.444 108.451 26.923Z" fill="#006AB5"/>
<path fill-rule="evenodd" clip-rule="evenodd" d="M130.455 23.4262C130.455 18.9282 126.936 15.4487 122.391 15.4487C117.845 15.4487 114.303 18.9282 114.303 23.4262C114.303 28.0352 117.845 31.6252 122.391 31.6252C126.936 31.6252 130.455 28.0352 130.455 23.4262ZM128.183 23.4262C128.183 26.9267 125.598 29.608 122.39 29.608C119.159 29.608 116.574 26.9285 116.574 23.4262C116.574 20.0356 119.159 17.4431 122.39 17.4431C125.598 17.4431 128.183 20.0356 128.183 23.4262Z" fill="#006AB5"/>
<path d="M140.863 15.449C142.756 15.449 144.817 16.0699 146.232 17.5101L145.192 19.1502C144.109 18.1304 142.465 17.4434 140.946 17.4434C137.533 17.4434 135.515 20.1249 135.515 23.4267C135.515 26.7508 137.575 29.6088 140.988 29.6088C142.632 29.6088 144.317 28.8335 145.504 27.5699L146.608 29.1428C145.358 30.473 143.526 31.6254 140.925 31.6254C136.368 31.6254 133.392 28.0353 133.392 23.4483C133.391 18.9064 136.492 15.449 140.863 15.449Z" fill="#006AB5"/>
<path d="M150.359 16.5288L159.677 16.5288V18.37H152.604V23.1021H158.34V24.9433H152.604V29.8043H160.063V31.6449H150.359V16.5288Z" fill="#006AB5"/>
<path d="M166.931 20.0638V16.5288H176.234V31.4756H174V18.3494H169.055V20.0856C169.055 27.2636 167.699 31.4125 163.297 31.6449V29.7188C165.983 29.3796 166.931 26.1407 166.931 20.0638Z" fill="#006AB5"/>
<path fill-rule="evenodd" clip-rule="evenodd" d="M184.997 16.5288L182.743 16.5288V31.6449H188.504C191.305 31.6449 193.309 29.7817 193.309 26.9766C193.309 23.958 191.213 22.2242 188.413 22.2242H184.997V16.5288ZM191.008 26.9783C191.008 28.7331 189.937 29.8048 188.116 29.8048H184.996V24.0659H188.093C189.869 24.0659 191.008 25.2009 191.008 26.9783Z" fill="#006AB5"/>
<path d="M197.797 16.5288L207.114 16.5288V18.37H200.042V23.1021H205.777V24.9433H200.042V29.8043H207.5V31.6449H197.797V16.5288Z" fill="#006AB5"/>
<path fill-rule="evenodd" clip-rule="evenodd" d="M96.6808 23.4267C96.6808 18.9287 93.1608 15.4492 88.6162 15.4492C84.0717 15.4492 80.5294 18.9287 80.5282 23.4267C80.5282 28.0357 84.0717 31.6257 88.6162 31.6257C93.1608 31.6257 96.6808 28.0357 96.6808 23.4267ZM94.4083 23.4269C94.4083 26.9274 91.823 29.6088 88.6151 29.6088C85.3856 29.6088 82.8003 26.9292 82.8003 23.4269C82.8003 20.0363 85.3838 17.4438 88.6151 17.4438C91.8236 17.4438 94.4083 20.0363 94.4083 23.4269Z" fill="#006AB5"/>
<defs>
<linearGradient id="paint0_linear_1_275" x1="11.5124" y1="41.9119" x2="40.8811" y2="41.9119" gradientUnits="userSpaceOnUse">
<stop stop-color="#E6332A"/>
<stop offset="1" stop-color="#F39200"/>
</linearGradient>
</defs>
</svg>
